<svg width="17" height="17" viewBox="0 0 17 17" fill="none" xmlns="http://www.w3.org/2000/svg">
<path d="M10.5021 9.00209H5.50099V8.00188H0.4999V14.1282C0.4999 14.2277 0.539418 14.3231 0.609759 14.3934C0.680101 14.4638 0.775504 14.5033 0.874982 14.5033H15.1281C15.2276 14.5033 15.323 14.4638 15.3933 14.3934C15.4636 14.3231 15.5032 14.2277 15.5032 14.1282V8.00188H10.5021V9.00209Z" fill="white"/>
<path d="M15.5034 3.87619C15.5034 3.77671 15.4639 3.6813 15.3936 3.61096C15.3232 3.54062 15.2278 3.5011 15.1283 3.5011H12.0026V1.75072C12.0026 1.6844 11.9763 1.6208 11.9294 1.57391C11.8825 1.52701 11.8189 1.50067 11.7526 1.50067H4.25096C4.18464 1.50067 4.12104 1.52701 4.07415 1.57391C4.02725 1.6208 4.00091 1.6844 4.00091 1.75072V3.5011H0.875226C0.775748 3.5011 0.680344 3.54062 0.610003 3.61096C0.539662 3.6813 0.500144 3.77671 0.500144 3.87619V7.00187H15.5034V3.87619ZM10.7524 3.5011H5.25118V2.75094H10.7524V3.5011Z" fill="white"/>
</svg>
