<svg width="75" height="75" viewBox="0 0 75 75" fill="none" xmlns="http://www.w3.org/2000/svg">
<path d="M25.1953 16.9922L37.5 4.6875L49.8047 16.9922" stroke="#E87121" stroke-width="2" stroke-linecap="round" stroke-linejoin="round"/>
<path d="M37.5 37.5V4.6875" stroke="#E87121" stroke-width="2" stroke-linecap="round" stroke-linejoin="round"/>
<path d="M51.5625 28.125H58.5938C59.2154 28.125 59.8115 28.3719 60.251 28.8115C60.6906 29.251 60.9375 29.8471 60.9375 30.4688V60.9375C60.9375 61.5591 60.6906 62.1552 60.251 62.5948C59.8115 63.0343 59.2154 63.2812 58.5938 63.2812H16.4062C15.7846 63.2812 15.1885 63.0343 14.749 62.5948C14.3094 62.1552 14.0625 61.5591 14.0625 60.9375V30.4688C14.0625 29.8471 14.3094 29.251 14.749 28.8115C15.1885 28.3719 15.7846 28.125 16.4062 28.125H23.4375" stroke="#E87121" stroke-width="2" stroke-linecap="round" stroke-linejoin="round"/>
</svg>
