<svg width="17" height="17" viewBox="0 0 17 17" fill="none" xmlns="http://www.w3.org/2000/svg">
<path d="M4.75087 8.00325C5.99396 8.00325 7.00169 6.99553 7.00169 5.75244C7.00169 4.50935 5.99396 3.50163 4.75087 3.50163C3.50779 3.50163 2.50006 4.50935 2.50006 5.75244C2.50006 6.99553 3.50779 8.00325 4.75087 8.00325Z" fill="white"/>
<path d="M7.31467 9.25349C6.43435 8.80645 5.46275 8.62827 4.75124 8.62827C3.35762 8.62827 0.499711 9.48295 0.499711 11.1917V12.5047H5.1889V12.0023C5.1889 11.4083 5.43899 10.8128 5.87665 10.3164C6.22584 9.91998 6.71476 9.55204 7.31467 9.25349Z" fill="white"/>
<path d="M10.6274 9.00284C8.99989 9.00284 5.75137 10.0081 5.75137 12.0035V13.5038H15.5035V12.0035C15.5035 10.0081 12.255 9.00284 10.6274 9.00284Z" fill="white"/>
<path d="M10.6279 8.00295C12.1472 8.00295 13.3788 6.77129 13.3788 5.25196C13.3788 3.73263 12.1472 2.50097 10.6279 2.50097C9.10853 2.50097 7.87687 3.73263 7.87687 5.25196C7.87687 6.77129 9.10853 8.00295 10.6279 8.00295Z" fill="white"/>
</svg>
