<svg width="75" height="75" viewBox="0 0 75 75" fill="none" xmlns="http://www.w3.org/2000/svg">
<path d="M37.5 46.875C42.6777 46.875 46.875 42.6777 46.875 37.5C46.875 32.3223 42.6777 28.125 37.5 28.125C32.3223 28.125 28.125 32.3223 28.125 37.5C28.125 42.6777 32.3223 46.875 37.5 46.875Z" stroke="#E87121" stroke-width="2" stroke-linecap="round" stroke-linejoin="round"/>
<path d="M60.625 46.875C60.209 47.8176 60.0849 48.8631 60.2687 49.8768C60.4525 50.8906 60.9358 51.826 61.6562 52.5625L61.8438 52.75C62.4249 53.3305 62.8858 54.0198 63.2004 54.7785C63.5149 55.5372 63.6768 56.3505 63.6768 57.1719C63.6768 57.9932 63.5149 58.8065 63.2004 59.5653C62.8858 60.324 62.4249 61.0133 61.8438 61.5937C61.2633 62.1748 60.574 62.6358 59.8153 62.9504C59.0565 63.2649 58.2432 63.4268 57.4219 63.4268C56.6005 63.4268 55.7872 63.2649 55.0285 62.9504C54.2698 62.6358 53.5805 62.1748 53 61.5937L52.8125 61.4062C52.076 60.6858 51.1406 60.2025 50.1268 60.0187C49.1131 59.8349 48.0675 59.959 47.125 60.375C46.2007 60.7711 45.4124 61.4289 44.8572 62.2673C44.302 63.1057 44.004 64.0882 44 65.0937V65.625C44 67.2826 43.3415 68.8723 42.1694 70.0444C40.9973 71.2165 39.4076 71.875 37.75 71.875C36.0924 71.875 34.5027 71.2165 33.3306 70.0444C32.1585 68.8723 31.5 67.2826 31.5 65.625V65.3437C31.4758 64.3094 31.141 63.3062 30.5391 62.4647C29.9372 61.6231 29.096 60.9821 28.125 60.625C27.1824 60.209 26.1369 60.0849 25.1232 60.2687C24.1094 60.4525 23.174 60.9358 22.4375 61.6562L22.25 61.8438C21.6695 62.4249 20.9802 62.8858 20.2215 63.2004C19.4628 63.5149 18.6495 63.6768 17.8281 63.6768C17.0068 63.6768 16.1935 63.5149 15.4347 63.2004C14.676 62.8858 13.9867 62.4249 13.4062 61.8438C12.8251 61.2633 12.3642 60.574 12.0496 59.8153C11.7351 59.0565 11.5732 58.2432 11.5732 57.4219C11.5732 56.6005 11.7351 55.7872 12.0496 55.0285C12.3642 54.2698 12.8251 53.5805 13.4062 53L13.5937 52.8125C14.3142 52.076 14.7975 51.1406 14.9813 50.1268C15.1651 49.1131 15.041 48.0675 14.625 47.125C14.2289 46.2007 13.5711 45.4124 12.7327 44.8572C11.8943 44.302 10.9118 44.004 9.90625 44H9.375C7.7174 44 6.12769 43.3415 4.95558 42.1694C3.78348 40.9973 3.125 39.4076 3.125 37.75C3.125 36.0924 3.78348 34.5027 4.95558 33.3306C6.12769 32.1585 7.7174 31.5 9.375 31.5H9.65625C10.6906 31.4758 11.6938 31.141 12.5353 30.5391C13.3769 29.9372 14.0179 29.096 14.375 28.125C14.791 27.1824 14.9151 26.1369 14.7313 25.1232C14.5475 24.1094 14.0642 23.174 13.3437 22.4375L13.1563 22.25C12.5751 21.6695 12.1142 20.9802 11.7996 20.2215C11.4851 19.4628 11.3232 18.6495 11.3232 17.8281C11.3232 17.0068 11.4851 16.1935 11.7996 15.4347C12.1142 14.676 12.5751 13.9867 13.1563 13.4062C13.7367 12.8251 14.426 12.3642 15.1847 12.0496C15.9435 11.7351 16.7568 11.5732 17.5781 11.5732C18.3995 11.5732 19.2128 11.7351 19.9715 12.0496C20.7302 12.3642 21.4195 12.8251 22 13.4062L22.1875 13.5937C22.924 14.3142 23.8594 14.7975 24.8732 14.9813C25.8869 15.1651 26.9325 15.041 27.875 14.625H28.125C29.0493 14.2289 29.8376 13.5711 30.3928 12.7327C30.948 11.8943 31.246 10.9118 31.25 9.90625V9.375C31.25 7.7174 31.9085 6.12769 33.0806 4.95558C34.2527 3.78348 35.8424 3.125 37.5 3.125C39.1576 3.125 40.7473 3.78348 41.9194 4.95558C43.0915 6.12769 43.75 7.7174 43.75 9.375V9.65625C43.754 10.6618 44.052 11.6443 44.6072 12.4827C45.1624 13.3211 45.9507 13.9789 46.875 14.375C47.8176 14.791 48.8631 14.9151 49.8768 14.7313C50.8906 14.5475 51.826 14.0642 52.5625 13.3437L52.75 13.1563C53.3305 12.5751 54.0198 12.1142 54.7785 11.7996C55.5372 11.4851 56.3505 11.3232 57.1719 11.3232C57.9932 11.3232 58.8065 11.4851 59.5653 11.7996C60.324 12.1142 61.0133 12.5751 61.5937 13.1563C62.1748 13.7367 62.6358 14.426 62.9504 15.1847C63.2649 15.9435 63.4268 16.7568 63.4268 17.5781C63.4268 18.3995 63.2649 19.2128 62.9504 19.9715C62.6358 20.7302 62.1748 21.4195 61.5937 22L61.4062 22.1875C60.6858 22.924 60.2025 23.8594 60.0187 24.8732C59.8349 25.8869 59.959 26.9325 60.375 27.875V28.125C60.7711 29.0493 61.4289 29.8376 62.2673 30.3928C63.1057 30.948 64.0882 31.246 65.0937 31.25H65.625C67.2826 31.25 68.8723 31.9085 70.0444 33.0806C71.2165 34.2527 71.875 35.8424 71.875 37.5C71.875 39.1576 71.2165 40.7473 70.0444 41.9194C68.8723 43.0915 67.2826 43.75 65.625 43.75H65.3437C64.3382 43.754 63.3557 44.052 62.5173 44.6072C61.6789 45.1624 61.0211 45.9507 60.625 46.875V46.875Z" stroke="#E87121" stroke-width="2" stroke-linecap="round" stroke-linejoin="round"/>
</svg>
