<svg width="126" height="18" viewBox="0 0 126 18" fill="none" xmlns="http://www.w3.org/2000/svg">
<g filter="url(#filter0_d_28_760)">
<path d="M9.35 7.38C9.45 7.4 9.5 7.46 9.5 7.56V8H8.56C8.43333 8 8.32 7.94 8.22 7.82L6.56 5.74C6.51333 5.67333 6.46333 5.63 6.41 5.61C6.35667 5.59 6.28 5.58 6.18 5.58H5.94V7.27C5.98 7.27 6.09667 7.29333 6.29 7.34L6.5 7.38C6.60667 7.4 6.66 7.46333 6.66 7.57V8H4.32V7.57C4.32 7.46333 4.37 7.4 4.47 7.38L5.04 7.27V1.36C4.72 1.3 4.53 1.26 4.47 1.24C4.37 1.22 4.32 1.16 4.32 1.06V0.63H5.94V4.96H6.16C6.3 4.96 6.40667 4.91333 6.48 4.82L7.62 3.6C7.6 3.6 7.58 3.59667 7.56 3.59C7.54 3.58333 7.52 3.58 7.5 3.58L7.34 3.55C7.23333 3.53 7.18 3.46667 7.18 3.36V2.94H9.3V3.36C9.3 3.46 9.25667 3.52 9.17 3.54L8.55 3.66L7.37 4.92C7.26333 5.04667 7.16667 5.13667 7.08 5.19C7.21333 5.27667 7.31333 5.38 7.38 5.5L8.78 7.28L9.04 7.32C9.21333 7.36 9.32 7.38 9.36 7.38H9.35ZM12.0485 2.86C12.3418 2.86 12.6185 2.91 12.8785 3.01C13.1452 3.11 13.3652 3.25333 13.5385 3.44C13.7385 3.65333 13.8852 3.89 13.9785 4.15C14.0852 4.45 14.1385 4.77 14.1385 5.11C14.1385 5.26333 14.1252 5.35667 14.0985 5.39C14.0652 5.43667 14.0052 5.46 13.9185 5.46H10.5585C10.5585 5.78 10.5985 6.06 10.6785 6.3C10.7452 6.50667 10.8585 6.7 11.0185 6.88C11.1652 7.04667 11.3318 7.16667 11.5185 7.24C11.7185 7.32 11.9318 7.36 12.1585 7.36C12.3985 7.36 12.5918 7.33667 12.7385 7.29C12.8785 7.24333 13.0185 7.18667 13.1585 7.12C13.3052 7.04667 13.4052 6.99333 13.4585 6.96C13.5452 6.90667 13.6118 6.88 13.6585 6.88C13.7318 6.88 13.7885 6.91 13.8285 6.97L14.0785 7.3C13.9852 7.42 13.8518 7.53333 13.6785 7.64C13.4785 7.76667 13.3152 7.85 13.1885 7.89C12.9885 7.95667 12.8085 8.00333 12.6485 8.03C12.4485 8.06333 12.2652 8.08 12.0985 8.08C11.7518 8.08 11.4285 8.02 11.1285 7.9C10.8418 7.78667 10.5852 7.61 10.3585 7.37C10.1452 7.15 9.97852 6.86667 9.85852 6.52C9.73852 6.18 9.67852 5.79333 9.67852 5.36C9.67852 5.01333 9.73518 4.68667 9.84852 4.38C9.96185 4.06667 10.1185 3.8 10.3185 3.58C10.5252 3.35333 10.7752 3.17667 11.0685 3.05C11.3618 2.92333 11.6885 2.86 12.0485 2.86ZM12.0685 3.51C11.6352 3.51 11.2985 3.63333 11.0585 3.88C10.8118 4.14 10.6585 4.48667 10.5985 4.92H13.3485C13.3485 4.71333 13.3185 4.52667 13.2585 4.36C13.1852 4.15333 13.1052 4.00333 13.0185 3.91C12.9052 3.79 12.7685 3.69333 12.6085 3.62C12.4552 3.55333 12.2718 3.52 12.0585 3.52L12.0685 3.51ZM17.2243 2.86C17.5176 2.86 17.7943 2.91 18.0543 3.01C18.321 3.11 18.541 3.25333 18.7143 3.44C18.9143 3.65333 19.061 3.89 19.1543 4.15C19.261 4.45 19.3143 4.77 19.3143 5.11C19.3143 5.26333 19.301 5.35667 19.2743 5.39C19.241 5.43667 19.181 5.46 19.0943 5.46H15.7343C15.7343 5.78 15.7743 6.06 15.8543 6.3C15.921 6.50667 16.0343 6.7 16.1943 6.88C16.341 7.04667 16.5076 7.16667 16.6943 7.24C16.8943 7.32 17.1076 7.36 17.3343 7.36C17.5743 7.36 17.7676 7.33667 17.9143 7.29C18.0543 7.24333 18.1943 7.18667 18.3343 7.12C18.481 7.04667 18.581 6.99333 18.6343 6.96C18.721 6.90667 18.7876 6.88 18.8343 6.88C18.9076 6.88 18.9643 6.91 19.0043 6.97L19.2543 7.3C19.161 7.42 19.0276 7.53333 18.8543 7.64C18.6543 7.76667 18.491 7.85 18.3643 7.89C18.1643 7.95667 17.9843 8.00333 17.8243 8.03C17.6243 8.06333 17.441 8.08 17.2743 8.08C16.9276 8.08 16.6043 8.02 16.3043 7.9C16.0176 7.78667 15.761 7.61 15.5343 7.37C15.321 7.15 15.1543 6.86667 15.0343 6.52C14.9143 6.18 14.8543 5.79333 14.8543 5.36C14.8543 5.01333 14.911 4.68667 15.0243 4.38C15.1376 4.06667 15.2943 3.8 15.4943 3.58C15.701 3.35333 15.951 3.17667 16.2443 3.05C16.5376 2.92333 16.8643 2.86 17.2243 2.86ZM17.2443 3.51C16.811 3.51 16.4743 3.63333 16.2343 3.88C15.9876 4.14 15.8343 4.48667 15.7743 4.92H18.5243C18.5243 4.71333 18.4943 4.52667 18.4343 4.36C18.361 4.15333 18.281 4.00333 18.1943 3.91C18.081 3.79 17.9443 3.69333 17.7843 3.62C17.631 3.55333 17.4476 3.52 17.2343 3.52L17.2443 3.51ZM21.2962 3.72C21.7828 3.13333 22.3495 2.84 22.9962 2.84C23.5895 2.84 24.0562 3.06 24.3962 3.5C24.7428 3.96667 24.9162 4.61333 24.9162 5.44C24.9162 6.2 24.7228 6.82333 24.3362 7.31C23.9295 7.81667 23.4162 8.07 22.7962 8.07C22.1762 8.07 21.6895 7.87333 21.3362 7.48V8.98L21.6062 9.04L21.8962 9.1C22.0028 9.12 22.0562 9.18333 22.0562 9.29V9.72H19.7162V9.29C19.7162 9.18333 19.7695 9.12 19.8762 9.1L20.4362 8.99V3.67C20.1295 3.61 19.9428 3.57 19.8762 3.55C19.7695 3.53 19.7162 3.46667 19.7162 3.36V2.94H20.9762C21.0962 2.94 21.1762 3 21.2162 3.12L21.2862 3.72H21.2962ZM21.3362 6.78C21.6362 7.18 22.0228 7.38 22.4962 7.38C22.9895 7.38 23.3628 7.21333 23.6162 6.88C23.8695 6.54667 23.9962 6.06667 23.9962 5.44C23.9962 4.82 23.8862 4.35333 23.6662 4.04C23.4462 3.72 23.1228 3.56 22.6962 3.56C22.1695 3.56 21.7162 3.81667 21.3362 4.33V6.78ZM28.3213 1.79C28.2679 1.73667 28.2213 1.67 28.1813 1.59C28.1479 1.52333 28.1313 1.44333 28.1313 1.35C28.1313 1.25 28.1479 1.16667 28.1813 1.1C28.2279 1.00667 28.2746 0.936666 28.3213 0.89C28.3746 0.836666 28.4413 0.79 28.5213 0.75C28.5879 0.716666 28.6679 0.7 28.7613 0.7C28.8546 0.7 28.9346 0.716666 29.0013 0.75C29.0813 0.79 29.1479 0.836666 29.2013 0.89C29.2479 0.936666 29.2946 1.00667 29.3413 1.1C29.3813 1.18 29.4013 1.26333 29.4013 1.35C29.4013 1.43 29.3813 1.51 29.3413 1.59C29.3013 1.67 29.2546 1.73667 29.2013 1.79C29.1479 1.84333 29.0813 1.89 29.0013 1.93C28.9346 1.96333 28.8546 1.98 28.7613 1.98C28.6679 1.98 28.5879 1.96333 28.5213 1.93C28.4413 1.89 28.3746 1.84333 28.3213 1.79ZM29.7713 7.38C29.8179 7.38667 29.8546 7.41 29.8813 7.45C29.9079 7.48333 29.9212 7.52333 29.9212 7.57V8H27.5913V7.57C27.5913 7.52333 27.6046 7.48333 27.6313 7.45C27.6579 7.41 27.6946 7.38667 27.7413 7.38L28.3213 7.27V3.66L27.7413 3.55C27.6946 3.54333 27.6579 3.52333 27.6313 3.49C27.6046 3.45 27.5913 3.40667 27.5913 3.36V2.94H29.2013V7.27L29.7713 7.38ZM32.0719 3.66C32.5719 3.12 33.1319 2.85 33.7519 2.85C34.2985 2.85 34.7185 3.02667 35.0119 3.38C35.2985 3.72667 35.4419 4.19 35.4419 4.77V7.26C35.7619 7.32 35.9519 7.36 36.0119 7.38C36.1185 7.4 36.1719 7.46333 36.1719 7.57V8H34.5519V4.78C34.5519 3.96667 34.1985 3.56 33.4919 3.56C32.9919 3.56 32.5319 3.79667 32.1119 4.27V7.27C32.1385 7.27 32.3319 7.31 32.6919 7.39C32.7919 7.41 32.8419 7.47333 32.8419 7.58V8H30.5119V7.58C30.5119 7.47333 30.5585 7.41 30.6519 7.39L31.2319 7.28V3.67C30.8985 3.61 30.7052 3.57 30.6519 3.55C30.5585 3.53 30.5119 3.46667 30.5119 3.36V2.94H31.7519C31.8719 2.94 31.9519 3 31.9919 3.12L32.0719 3.67V3.66ZM40.7403 8.08C40.3536 8.08 40.047 7.96667 39.8203 7.74C39.607 7.52667 39.5003 7.20667 39.5003 6.78V3.68H38.8903C38.8303 3.68 38.7836 3.66667 38.7503 3.64C38.717 3.61333 38.7003 3.56333 38.7003 3.49V3.14L39.5303 3.03L39.7303 1.46C39.7303 1.40667 39.7503 1.36667 39.7903 1.34C39.8236 1.31333 39.8703 1.3 39.9303 1.3H40.3803V3.04H41.8303V3.69H40.3803V6.73C40.3803 6.95 40.4303 7.11 40.5303 7.21C40.6303 7.31 40.767 7.36 40.9403 7.36C41.0136 7.36 41.097 7.34667 41.1903 7.32C41.2503 7.3 41.3103 7.27333 41.3703 7.24C41.3903 7.22667 41.4103 7.21333 41.4303 7.2C41.4503 7.18667 41.4703 7.17333 41.4903 7.16C41.5436 7.13333 41.577 7.12 41.5903 7.12C41.637 7.12 41.677 7.14667 41.7103 7.2L41.9703 7.62C41.7903 7.77333 41.6036 7.88667 41.4103 7.96C41.1903 8.04 40.967 8.08 40.7403 8.08ZM44.8431 2.86C45.2098 2.86 45.5431 2.92 45.8431 3.04C46.1365 3.16 46.3931 3.33333 46.6131 3.56C46.8198 3.77333 46.9798 4.04667 47.0931 4.38C47.2065 4.70667 47.2631 5.06667 47.2631 5.46C47.2631 5.85333 47.2065 6.21333 47.0931 6.54C46.9798 6.87333 46.8198 7.14667 46.6131 7.36C46.3931 7.58667 46.1365 7.76 45.8431 7.88C45.5431 8 45.2098 8.06 44.8431 8.06C44.4765 8.06 44.1431 8 43.8431 7.88C43.5498 7.76 43.2931 7.58667 43.0731 7.36C42.8731 7.15333 42.7098 6.88 42.5831 6.54C42.4765 6.25333 42.4231 5.89333 42.4231 5.46C42.4231 5.02667 42.4765 4.66667 42.5831 4.38C42.7098 4.04 42.8731 3.76667 43.0731 3.56C43.2931 3.33333 43.5498 3.16 43.8431 3.04C44.1431 2.92 44.4765 2.86 44.8431 2.86ZM44.8431 7.38C45.3565 7.38 45.7298 7.21333 45.9631 6.88C46.2098 6.53333 46.3331 6.06333 46.3331 5.47C46.3331 4.87667 46.2098 4.40667 45.9631 4.06C45.7298 3.72667 45.3565 3.56 44.8431 3.56C44.5831 3.56 44.3631 3.6 44.1831 3.68C44.0098 3.76 43.8565 3.88667 43.7231 4.06C43.5965 4.23333 43.5031 4.43333 43.4431 4.66C43.3765 4.92667 43.3431 5.2 43.3431 5.48C43.3431 5.74667 43.3765 6.01333 43.4431 6.28C43.5031 6.50667 43.5965 6.70667 43.7231 6.88C43.8365 7.03333 43.9898 7.15333 44.1831 7.24C44.3965 7.33333 44.6165 7.38 44.8431 7.38ZM50.3063 7.38C50.8063 7.38 51.263 7.14667 51.6763 6.68V3.68C51.6163 3.66 51.4263 3.62 51.1063 3.56C51.0063 3.54 50.9563 3.47667 50.9563 3.37V2.94H52.5663V7.28C52.8863 7.34 53.0763 7.38 53.1363 7.4C53.2363 7.42 53.2863 7.48 53.2863 7.58V8.01H52.0363C51.9163 8.01 51.8363 7.94667 51.7963 7.82L51.7263 7.28C51.2463 7.82 50.6863 8.09 50.0463 8.09C49.5063 8.09 49.0863 7.91333 48.7863 7.56C48.493 7.20667 48.3463 6.74333 48.3463 6.17V3.67C48.0397 3.61 47.853 3.57 47.7863 3.55C47.6797 3.53 47.6263 3.46667 47.6263 3.36V2.94H49.2463V6.16C49.2463 6.56 49.333 6.86 49.5063 7.06C49.6863 7.26667 49.953 7.37 50.3063 7.37V7.38ZM57.8708 7.29C57.4508 7.81 56.8241 8.07 55.9908 8.07C55.3508 8.07 54.8241 7.84 54.4108 7.38C53.9774 6.89333 53.7608 6.25333 53.7608 5.46C53.7608 4.68667 53.9641 4.06333 54.3708 3.59C54.7974 3.10333 55.3908 2.86 56.1508 2.86C56.5308 2.86 57.0308 2.98 57.6508 3.22V4.54H57.2508C57.1574 4.54 57.1008 4.49333 57.0808 4.4C57.0741 4.38 57.0608 4.25333 57.0408 4.02L57.0108 3.69C56.9374 3.66333 56.8641 3.64333 56.7908 3.63C56.7241 3.61667 56.6774 3.60667 56.6508 3.6C56.4708 3.57333 56.2841 3.56 56.0908 3.56C55.9174 3.56 55.7341 3.60333 55.5408 3.69C55.3608 3.77 55.2041 3.89333 55.0708 4.06C54.8174 4.39333 54.6908 4.86 54.6908 5.46C54.6908 6.06 54.8241 6.53333 55.0908 6.88C55.3508 7.21333 55.7074 7.38 56.1608 7.38C56.5808 7.38 56.9508 7.24 57.2708 6.96C57.3241 6.90667 57.3908 6.88 57.4708 6.88C57.5441 6.88 57.5974 6.90667 57.6308 6.96L57.8708 7.29ZM60.042 3.62C60.5287 3.11333 61.0687 2.86 61.662 2.86C62.202 2.86 62.622 3.03333 62.922 3.38C63.2154 3.72667 63.362 4.19333 63.362 4.78V7.27C63.682 7.33 63.872 7.37 63.932 7.39C64.032 7.41 64.082 7.47333 64.082 7.58V8H62.472V4.78C62.472 3.97333 62.1154 3.57 61.402 3.57C60.9154 3.57 60.462 3.80667 60.042 4.28V7.28L60.162 7.3L60.602 7.39C60.7087 7.41 60.762 7.47333 60.762 7.58V8H58.422V7.58C58.422 7.47333 58.4754 7.41 58.582 7.39L59.142 7.28V1.37C58.762 1.31 58.542 1.27 58.482 1.25C58.3754 1.23 58.322 1.16667 58.322 1.06V0.639999H60.042V3.62ZM71.8305 7.38C71.9305 7.4 71.9805 7.46 71.9805 7.56V8H71.0405C70.9138 8 70.8005 7.94 70.7005 7.82L69.0405 5.74C68.9938 5.67333 68.9438 5.63 68.8905 5.61C68.8371 5.59 68.7605 5.58 68.6605 5.58H68.4205V7.27C68.4605 7.27 68.5771 7.29333 68.7705 7.34L68.9805 7.38C69.0871 7.4 69.1405 7.46333 69.1405 7.57V8H66.8005V7.57C66.8005 7.46333 66.8505 7.4 66.9505 7.38L67.5205 7.27V1.36C67.2005 1.3 67.0105 1.26 66.9505 1.24C66.8505 1.22 66.8005 1.16 66.8005 1.06V0.63H68.4205V4.96H68.6405C68.7805 4.96 68.8871 4.91333 68.9605 4.82L70.1005 3.6C70.0805 3.6 70.0605 3.59667 70.0405 3.59C70.0205 3.58333 70.0005 3.58 69.9805 3.58L69.8205 3.55C69.7138 3.53 69.6605 3.46667 69.6605 3.36V2.94H71.7805V3.36C71.7805 3.46 71.7371 3.52 71.6505 3.54L71.0305 3.66L69.8505 4.92C69.7438 5.04667 69.6471 5.13667 69.5605 5.19C69.6938 5.27667 69.7938 5.38 69.8605 5.5L71.2605 7.28L71.5205 7.32C71.6938 7.36 71.8005 7.38 71.8405 7.38H71.8305ZM74.529 2.86C74.8223 2.86 75.099 2.91 75.359 3.01C75.6257 3.11 75.8457 3.25333 76.019 3.44C76.219 3.65333 76.3657 3.89 76.459 4.15C76.5657 4.45 76.619 4.77 76.619 5.11C76.619 5.26333 76.6057 5.35667 76.579 5.39C76.5457 5.43667 76.4857 5.46 76.399 5.46H73.039C73.039 5.78 73.079 6.06 73.159 6.3C73.2257 6.50667 73.339 6.7 73.499 6.88C73.6457 7.04667 73.8123 7.16667 73.999 7.24C74.199 7.32 74.4123 7.36 74.639 7.36C74.879 7.36 75.0723 7.33667 75.219 7.29C75.359 7.24333 75.499 7.18667 75.639 7.12C75.7857 7.04667 75.8857 6.99333 75.939 6.96C76.0257 6.90667 76.0923 6.88 76.139 6.88C76.2123 6.88 76.269 6.91 76.309 6.97L76.559 7.3C76.4657 7.42 76.3323 7.53333 76.159 7.64C75.959 7.76667 75.7957 7.85 75.669 7.89C75.469 7.95667 75.289 8.00333 75.129 8.03C74.929 8.06333 74.7457 8.08 74.579 8.08C74.2323 8.08 73.909 8.02 73.609 7.9C73.3223 7.78667 73.0657 7.61 72.839 7.37C72.6257 7.15 72.459 6.86667 72.339 6.52C72.219 6.18 72.159 5.79333 72.159 5.36C72.159 5.01333 72.2157 4.68667 72.329 4.38C72.4423 4.06667 72.599 3.8 72.799 3.58C73.0057 3.35333 73.2557 3.17667 73.549 3.05C73.8423 2.92333 74.169 2.86 74.529 2.86ZM74.549 3.51C74.1157 3.51 73.779 3.63333 73.539 3.88C73.2923 4.14 73.139 4.48667 73.079 4.92H75.829C75.829 4.71333 75.799 4.52667 75.739 4.36C75.6657 4.15333 75.5857 4.00333 75.499 3.91C75.3857 3.79 75.249 3.69333 75.089 3.62C74.9357 3.55333 74.7523 3.52 74.539 3.52L74.549 3.51ZM79.7048 2.86C79.9981 2.86 80.2748 2.91 80.5348 3.01C80.8014 3.11 81.0214 3.25333 81.1948 3.44C81.3948 3.65333 81.5414 3.89 81.6348 4.15C81.7414 4.45 81.7948 4.77 81.7948 5.11C81.7948 5.26333 81.7814 5.35667 81.7548 5.39C81.7214 5.43667 81.6614 5.46 81.5748 5.46H78.2148C78.2148 5.78 78.2548 6.06 78.3348 6.3C78.4014 6.50667 78.5148 6.7 78.6748 6.88C78.8214 7.04667 78.9881 7.16667 79.1748 7.24C79.3748 7.32 79.5881 7.36 79.8148 7.36C80.0548 7.36 80.2481 7.33667 80.3948 7.29C80.5348 7.24333 80.6748 7.18667 80.8148 7.12C80.9614 7.04667 81.0614 6.99333 81.1148 6.96C81.2014 6.90667 81.2681 6.88 81.3148 6.88C81.3881 6.88 81.4448 6.91 81.4848 6.97L81.7348 7.3C81.6414 7.42 81.5081 7.53333 81.3348 7.64C81.1348 7.76667 80.9714 7.85 80.8448 7.89C80.6448 7.95667 80.4648 8.00333 80.3048 8.03C80.1048 8.06333 79.9214 8.08 79.7548 8.08C79.4081 8.08 79.0848 8.02 78.7848 7.9C78.4981 7.78667 78.2414 7.61 78.0148 7.37C77.8014 7.15 77.6348 6.86667 77.5148 6.52C77.3948 6.18 77.3348 5.79333 77.3348 5.36C77.3348 5.01333 77.3914 4.68667 77.5048 4.38C77.6181 4.06667 77.7748 3.8 77.9748 3.58C78.1814 3.35333 78.4314 3.17667 78.7248 3.05C79.0181 2.92333 79.3448 2.86 79.7048 2.86ZM79.7248 3.51C79.2914 3.51 78.9548 3.63333 78.7148 3.88C78.4681 4.14 78.3148 4.48667 78.2548 4.92H81.0048C81.0048 4.71333 80.9748 4.52667 80.9148 4.36C80.8414 4.15333 80.7614 4.00333 80.6748 3.91C80.5614 3.79 80.4248 3.69333 80.2648 3.62C80.1114 3.55333 79.9281 3.52 79.7148 3.52L79.7248 3.51ZM83.7766 3.72C84.2633 3.13333 84.83 2.84 85.4766 2.84C86.07 2.84 86.5366 3.06 86.8766 3.5C87.2233 3.96667 87.3966 4.61333 87.3966 5.44C87.3966 6.2 87.2033 6.82333 86.8166 7.31C86.41 7.81667 85.8966 8.07 85.2766 8.07C84.6566 8.07 84.17 7.87333 83.8166 7.48V8.98L84.0866 9.04L84.3766 9.1C84.4833 9.12 84.5366 9.18333 84.5366 9.29V9.72H82.1966V9.29C82.1966 9.18333 82.25 9.12 82.3566 9.1L82.9166 8.99V3.67C82.61 3.61 82.4233 3.57 82.3566 3.55C82.25 3.53 82.1966 3.46667 82.1966 3.36V2.94H83.4566C83.5766 2.94 83.6566 3 83.6966 3.12L83.7666 3.72H83.7766ZM83.8166 6.78C84.1166 7.18 84.5033 7.38 84.9766 7.38C85.47 7.38 85.8433 7.21333 86.0966 6.88C86.35 6.54667 86.4766 6.06667 86.4766 5.44C86.4766 4.82 86.3666 4.35333 86.1466 4.04C85.9266 3.72 85.6033 3.56 85.1766 3.56C84.65 3.56 84.1966 3.81667 83.8166 4.33V6.78ZM90.8017 1.79C90.7484 1.73667 90.7017 1.67 90.6617 1.59C90.6284 1.52333 90.6117 1.44333 90.6117 1.35C90.6117 1.25 90.6284 1.16667 90.6617 1.1C90.7084 1.00667 90.7551 0.936666 90.8017 0.89C90.8551 0.836666 90.9217 0.79 91.0017 0.75C91.0684 0.716666 91.1484 0.7 91.2417 0.7C91.3351 0.7 91.4151 0.716666 91.4817 0.75C91.5617 0.79 91.6284 0.836666 91.6817 0.89C91.7284 0.936666 91.7751 1.00667 91.8217 1.1C91.8617 1.18 91.8817 1.26333 91.8817 1.35C91.8817 1.43 91.8617 1.51 91.8217 1.59C91.7817 1.67 91.7351 1.73667 91.6817 1.79C91.6284 1.84333 91.5617 1.89 91.4817 1.93C91.4151 1.96333 91.3351 1.98 91.2417 1.98C91.1484 1.98 91.0684 1.96333 91.0017 1.93C90.9217 1.89 90.8551 1.84333 90.8017 1.79ZM92.2517 7.38C92.2984 7.38667 92.3351 7.41 92.3617 7.45C92.3884 7.48333 92.4017 7.52333 92.4017 7.57V8H90.0717V7.57C90.0717 7.52333 90.0851 7.48333 90.1117 7.45C90.1384 7.41 90.1751 7.38667 90.2217 7.38L90.8017 7.27V3.66L90.2217 3.55C90.1751 3.54333 90.1384 3.52333 90.1117 3.49C90.0851 3.45 90.0717 3.40667 90.0717 3.36V2.94H91.6817V7.27L92.2517 7.38ZM94.5523 3.66C95.0523 3.12 95.6123 2.85 96.2323 2.85C96.779 2.85 97.199 3.02667 97.4923 3.38C97.779 3.72667 97.9223 4.19 97.9223 4.77V7.26C98.2423 7.32 98.4323 7.36 98.4923 7.38C98.599 7.4 98.6523 7.46333 98.6523 7.57V8H97.0323V4.78C97.0323 3.96667 96.679 3.56 95.9723 3.56C95.4723 3.56 95.0123 3.79667 94.5923 4.27V7.27C94.619 7.27 94.8123 7.31 95.1723 7.39C95.2723 7.41 95.3223 7.47333 95.3223 7.58V8H92.9923V7.58C92.9923 7.47333 93.039 7.41 93.1323 7.39L93.7123 7.28V3.67C93.379 3.61 93.1857 3.57 93.1323 3.55C93.039 3.53 92.9923 3.46667 92.9923 3.36V2.94H94.2323C94.3523 2.94 94.4323 3 94.4723 3.12L94.5523 3.67V3.66ZM103.361 2.86C103.707 2.86 104.147 2.95 104.681 3.13V4.43H104.291C104.197 4.43 104.141 4.38333 104.121 4.29L104.061 3.63C103.747 3.55667 103.487 3.52 103.281 3.52H103.271C102.997 3.52 102.767 3.59333 102.581 3.74C102.401 3.88 102.311 4.03333 102.311 4.2C102.311 4.37333 102.351 4.5 102.431 4.58C102.564 4.73333 102.757 4.85 103.011 4.93L103.311 5.02C103.364 5.03333 103.471 5.06667 103.631 5.12L104.111 5.3C104.244 5.34667 104.384 5.43333 104.531 5.56C104.804 5.77333 104.941 6.06667 104.941 6.44C104.941 6.92667 104.777 7.31333 104.451 7.6C104.097 7.91333 103.651 8.07 103.111 8.07C102.557 8.07 102.011 7.98 101.471 7.8V6.48H101.831C101.911 6.48 101.961 6.52 101.981 6.6L102.041 7.24C102.307 7.37333 102.651 7.44 103.071 7.44C103.391 7.44 103.651 7.35667 103.851 7.19C104.024 7.03667 104.111 6.86667 104.111 6.68C104.111 6.48667 104.071 6.34667 103.991 6.26C103.897 6.15333 103.797 6.07333 103.691 6.02C103.544 5.94667 103.404 5.89333 103.271 5.86C102.777 5.7 102.467 5.59333 102.341 5.54C102.181 5.46667 102.031 5.37333 101.891 5.26C101.611 5.02667 101.471 4.71333 101.471 4.32C101.471 3.92 101.631 3.58 101.951 3.3C102.284 3.00667 102.754 2.86 103.361 2.86ZM110.912 3.36C110.912 3.46 110.862 3.52 110.762 3.54C110.736 3.54 110.696 3.54667 110.642 3.56C110.596 3.57333 110.546 3.58667 110.492 3.6L110.242 3.65L107.732 9.49C107.706 9.55667 107.662 9.61 107.602 9.65C107.549 9.69 107.486 9.71 107.412 9.71H106.752L107.672 7.7L105.892 3.64C105.692 3.60667 105.542 3.57333 105.442 3.54C105.342 3.52 105.292 3.46 105.292 3.36V2.93H107.562V3.36C107.562 3.46 107.512 3.52 107.412 3.54C107.346 3.56 107.159 3.6 106.852 3.66L107.982 6.3C108.016 6.37333 108.042 6.46 108.062 6.56C108.089 6.66 108.106 6.72667 108.112 6.76C108.159 6.6 108.212 6.44667 108.272 6.3L109.362 3.66C109.362 3.66 109.179 3.62333 108.812 3.55C108.719 3.53 108.672 3.46667 108.672 3.36V2.94H110.552L110.912 2.93V3.36ZM113.009 3.66C113.509 3.12 114.069 2.85 114.689 2.85C115.236 2.85 115.656 3.02667 115.949 3.38C116.236 3.72667 116.379 4.19 116.379 4.77V7.26C116.699 7.32 116.889 7.36 116.949 7.38C117.056 7.4 117.109 7.46333 117.109 7.57V8H115.489V4.78C115.489 3.96667 115.136 3.56 114.429 3.56C113.929 3.56 113.469 3.79667 113.049 4.27V7.27C113.076 7.27 113.269 7.31 113.629 7.39C113.729 7.41 113.779 7.47333 113.779 7.58V8H111.449V7.58C111.449 7.47333 111.496 7.41 111.589 7.39L112.169 7.28V3.67C111.836 3.61 111.643 3.57 111.589 3.55C111.496 3.53 111.449 3.46667 111.449 3.36V2.94H112.689C112.809 2.94 112.889 3 112.929 3.12L113.009 3.67V3.66ZM121.679 7.29C121.259 7.81 120.633 8.07 119.799 8.07C119.159 8.07 118.633 7.84 118.219 7.38C117.786 6.89333 117.569 6.25333 117.569 5.46C117.569 4.68667 117.773 4.06333 118.179 3.59C118.606 3.10333 119.199 2.86 119.959 2.86C120.339 2.86 120.839 2.98 121.459 3.22V4.54H121.059C120.966 4.54 120.909 4.49333 120.889 4.4C120.883 4.38 120.869 4.25333 120.849 4.02L120.819 3.69C120.746 3.66333 120.673 3.64333 120.599 3.63C120.533 3.61667 120.486 3.60667 120.459 3.6C120.279 3.57333 120.093 3.56 119.899 3.56C119.726 3.56 119.543 3.60333 119.349 3.69C119.169 3.77 119.013 3.89333 118.879 4.06C118.626 4.39333 118.499 4.86 118.499 5.46C118.499 6.06 118.633 6.53333 118.899 6.88C119.159 7.21333 119.516 7.38 119.969 7.38C120.389 7.38 120.759 7.24 121.079 6.96C121.133 6.90667 121.199 6.88 121.279 6.88C121.353 6.88 121.406 6.90667 121.439 6.96L121.679 7.29Z" fill="black"/>
</g>
<defs>
<filter id="filter0_d_28_760" x="0.319946" y="0.630005" width="125.359" height="17.09" filterUnits="userSpaceOnUse" color-interpolation-filters="sRGB">
<feFlood flood-opacity="0" result="BackgroundImageFix"/>
<feColorMatrix in="SourceAlpha" type="matrix" values="0 0 0 0 0 0 0 0 0 0 0 0 0 0 0 0 0 0 127 0" result="hardAlpha"/>
<feOffset dy="4"/>
<feGaussianBlur stdDeviation="2"/>
<feComposite in2="hardAlpha" operator="out"/>
<feColorMatrix type="matrix" values="0 0 0 0 0 0 0 0 0 0 0 0 0 0 0 0 0 0 0.25 0"/>
<feBlend mode="normal" in2="BackgroundImageFix" result="effect1_dropShadow_28_760"/>
<feBlend mode="normal" in="SourceGraphic" in2="effect1_dropShadow_28_760" result="shape"/>
</filter>
</defs>
</svg>
