<svg width="122" height="33" viewBox="0 0 122 33" fill="none" xmlns="http://www.w3.org/2000/svg">
<g filter="url(#filter0_d_28_683)">
<path d="M19.52 5.576C19.776 5.576 20.04 5.696 20.312 5.936C20.584 6.16 20.72 6.4 20.72 6.656C20.72 6.896 20.608 7.08 20.384 7.208C20.176 7.336 19.944 7.4 19.688 7.4C19.432 7.4 19.216 7.288 19.04 7.064C18.88 6.824 18.8 6.568 18.8 6.296C18.8 5.816 19.04 5.576 19.52 5.576ZM4.976 2.36L4.88 1.208C4.88 0.727999 5.12 0.487999 5.6 0.487999C6.032 0.487999 6.272 0.727999 6.32 1.208C6.384 1.592 6.416 1.912 6.416 2.168C6.416 2.424 6.32 3.76 6.128 6.176C5.936 8.576 5.84 10.424 5.84 11.72C5.84 12.216 5.936 12.584 6.128 12.824C6.336 13.048 6.672 13.16 7.136 13.16C8.256 13.16 9.424 12.984 10.64 12.632C11.872 12.264 13.024 11.904 14.096 11.552C15.168 11.184 16.056 11 16.76 11C17.464 11 17.984 11.224 18.32 11.672C18.656 12.12 18.856 12.616 18.92 13.16C19.096 14.6 19.376 15.32 19.76 15.32C20.064 15.32 20.456 15.24 20.936 15.08C21.416 14.92 21.68 14.84 21.728 14.84C22.208 14.84 22.448 15.08 22.448 15.56C22.448 15.912 22.208 16.168 21.728 16.328C20.864 16.616 20.16 16.76 19.616 16.76C19.088 16.76 18.656 16.536 18.32 16.088C17.984 15.64 17.784 15.144 17.72 14.6C17.544 13.16 17.264 12.44 16.88 12.44C16.144 12.44 15.256 12.624 14.216 12.992C13.176 13.344 12.032 13.704 10.784 14.072C9.552 14.424 8.336 14.6 7.136 14.6C6.288 14.6 5.616 14.344 5.12 13.832C4.64 13.304 4.4 12.6 4.4 11.72C4.4 10.28 4.496 8.36 4.688 5.96L4.976 2.36ZM36.8555 16.328C35.9915 16.616 35.3195 16.76 34.8395 16.76C34.3595 16.76 33.9835 16.584 33.7115 16.232C33.4395 15.88 33.1915 15.28 32.9675 14.432C32.7595 13.584 32.5995 13.16 32.4875 13.16C32.0715 13.16 31.6315 13.8 31.1675 15.08C30.9915 15.56 30.7035 16 30.3035 16.4C29.9035 16.8 29.3995 17 28.7915 17C28.1995 17 27.7355 16.736 27.3995 16.208C27.0635 15.68 26.8635 15.104 26.7995 14.48C26.7515 13.856 26.6715 13.28 26.5595 12.752C26.4475 12.224 26.2635 11.96 26.0075 11.96C25.8315 11.96 25.7035 12.008 25.6235 12.104C25.5435 12.2 25.4715 12.296 25.4075 12.392C25.3595 12.472 25.3035 12.56 25.2395 12.656C25.1915 12.736 25.1275 12.848 25.0475 12.992C24.9835 13.136 24.9035 13.288 24.8075 13.448C24.4875 14.008 24.2315 14.424 24.0395 14.696C23.6555 15.304 23.0875 15.768 22.3355 16.088C22.0475 16.216 21.8155 16.28 21.6395 16.28C21.1595 16.28 20.9195 16.04 20.9195 15.56C20.9195 15.256 21.1755 15.008 21.6875 14.816C22.1995 14.624 22.5595 14.352 22.7675 14C22.9915 13.632 23.2395 13.216 23.5115 12.752C23.7835 12.288 23.9675 11.976 24.0635 11.816C24.1755 11.656 24.3115 11.464 24.4715 11.24C24.6315 11 24.7755 10.848 24.9035 10.784C25.2395 10.608 25.6075 10.52 26.0075 10.52C26.6635 10.52 27.1595 10.784 27.4955 11.312C27.8315 11.84 28.0235 12.416 28.0715 13.04C28.1355 13.664 28.2235 14.24 28.3355 14.768C28.4475 15.296 28.6315 15.56 28.8875 15.56C29.1435 15.56 29.3835 15.36 29.6075 14.96C29.8475 14.56 30.0555 14.12 30.2315 13.64C30.4075 13.16 30.6875 12.72 31.0715 12.32C31.4715 11.92 31.9435 11.72 32.4875 11.72C32.9035 11.72 33.2075 11.824 33.3995 12.032C33.5915 12.224 33.7275 12.376 33.8075 12.488C33.9035 12.6 33.9835 12.768 34.0475 12.992C34.1275 13.216 34.1835 13.384 34.2155 13.496C34.2475 13.592 34.2955 13.768 34.3595 14.024C34.5515 14.904 34.7275 15.336 34.8875 15.32C35.1915 15.32 35.5835 15.24 36.0635 15.08C36.5435 14.92 36.8075 14.84 36.8555 14.84C37.3355 14.84 37.5755 15.08 37.5755 15.56C37.5755 15.912 37.3355 16.168 36.8555 16.328ZM44.4847 16.76C43.6367 16.76 42.9807 16.376 42.5167 15.608C42.0687 14.84 41.8447 13.96 41.8447 12.968C41.8447 12.456 42.0847 12.2 42.5647 12.2C43.0447 12.2 43.2847 12.488 43.2847 13.064C43.2847 13.64 43.3967 14.16 43.6207 14.624C43.8447 15.088 44.1167 15.32 44.4367 15.32C44.7727 15.32 45.1807 15.24 45.6607 15.08C46.1407 14.92 46.4047 14.84 46.4527 14.84C46.9327 14.84 47.1727 15.08 47.1727 15.56C47.1727 15.912 46.9327 16.168 46.4527 16.328C45.5887 16.616 44.9327 16.76 44.4847 16.76ZM39.6847 1.208L39.6607 1.616C39.4687 3.536 39.3407 4.96 39.2767 5.888C39.2287 6.816 39.2047 7.936 39.2047 9.248C39.2047 10.544 39.2447 11.392 39.3247 11.792C39.7087 10.944 40.3647 10.16 41.2927 9.44C42.2207 8.72 43.3647 8.36 44.7247 8.36C45.2047 8.36 45.4447 8.6 45.4447 9.08C45.4447 9.56 45.2047 9.8 44.7247 9.8C44.0687 9.8 43.4607 9.92 42.9007 10.16C42.3567 10.4 41.9247 10.696 41.6047 11.048C40.9967 11.72 40.6127 12.32 40.4527 12.848C40.4207 12.944 40.3647 13.152 40.2847 13.472C40.2207 13.776 40.1727 13.976 40.1407 14.072C40.1247 14.184 40.0687 14.328 39.9727 14.504C39.8127 14.808 39.5567 14.96 39.2047 14.96C38.8687 14.96 38.5407 14.432 38.2207 13.376C37.9167 12.304 37.7647 11.352 37.7647 10.52C37.7647 9.688 37.7647 8.944 37.7647 8.288C37.7807 7.616 37.7887 7.088 37.7887 6.704C37.8047 6.304 37.8367 5.816 37.8847 5.24C37.9327 4.664 37.9567 4.288 37.9567 4.112C37.9887 3.36 38.0847 2.384 38.2447 1.184C38.2927 0.719999 38.5327 0.487999 38.9647 0.487999C39.4447 0.487999 39.6847 0.727999 39.6847 1.208ZM60.4781 15.08L61.3421 14.84C61.8221 14.84 62.0621 15.08 62.0621 15.56C62.0621 15.912 61.8461 16.16 61.4141 16.304C60.9821 16.448 60.6701 16.52 60.4781 16.52C59.7101 16.52 59.1261 16.04 58.7261 15.08C58.5021 14.552 58.3101 13.44 58.1501 11.744C58.0061 10.048 57.8621 8.52 57.7181 7.16C57.5901 5.784 57.4221 5.096 57.2141 5.096C57.0221 5.096 56.7821 6.208 56.4941 8.432C56.4301 8.96 56.3741 9.416 56.3261 9.8C56.2941 10.168 56.2381 10.64 56.1581 11.216C56.0941 11.776 56.0461 12.184 56.0141 12.44C55.8861 13.512 55.6861 14.304 55.4141 14.816C55.1421 15.312 54.7021 15.56 54.0941 15.56C53.3261 15.56 52.7421 15.08 52.3421 14.12C52.1021 13.592 51.7741 12.504 51.3581 10.856C50.9581 9.192 50.5821 7.696 50.2301 6.368C49.8941 5.04 49.6621 4.376 49.5341 4.376C49.3261 4.376 49.1501 5.944 49.0061 9.08C48.8781 12.2 48.8141 14.608 48.8141 16.304C48.8141 16.768 48.5741 17 48.0941 17C47.8381 17 47.6541 16.928 47.5421 16.784C47.4301 16.624 47.3741 16.464 47.3741 16.304C47.3741 14.768 47.4301 12.568 47.5421 9.704C47.6701 6.824 47.8221 5.048 47.9981 4.376C48.2541 3.416 48.7581 2.936 49.5101 2.936C50.2621 2.936 50.8141 3.416 51.1661 4.376C51.3581 4.888 51.6541 6 52.0541 7.712C52.4701 9.408 52.8621 10.904 53.2301 12.2C53.5981 13.48 53.8781 14.12 54.0701 14.12C54.2781 14.12 54.4461 13.512 54.5741 12.296C55.1181 7.944 55.4701 5.544 55.6301 5.096C55.7741 4.648 55.9581 4.296 56.1821 4.04C56.4221 3.784 56.7661 3.656 57.2141 3.656C57.9821 3.656 58.5341 4.136 58.8701 5.096C58.9981 5.416 59.1261 6.432 59.2541 8.144C59.3821 9.856 59.5421 11.44 59.7341 12.896C59.9261 14.352 60.1741 15.08 60.4781 15.08ZM66.8409 5.096C67.0969 5.096 67.3609 5.216 67.6329 5.456C67.9049 5.68 68.0409 5.92 68.0409 6.176C68.0409 6.416 67.9289 6.6 67.7049 6.728C67.4969 6.856 67.2649 6.92 67.0089 6.92C66.7529 6.92 66.5369 6.808 66.3609 6.584C66.2009 6.344 66.1209 6.088 66.1209 5.816C66.1209 5.336 66.3609 5.096 66.8409 5.096ZM64.6809 14.024C63.7849 14.984 62.8729 15.672 61.9449 16.088C61.6569 16.216 61.4249 16.28 61.2489 16.28C60.7689 16.28 60.5289 16.04 60.5289 15.56C60.5289 15.256 60.7689 15.008 61.2489 14.816C61.5049 14.72 61.8409 14.528 62.2569 14.24C62.6889 13.952 62.9769 13.736 63.1209 13.592C63.2649 13.448 63.5129 13.184 63.8649 12.8C64.2329 12.416 64.5209 12.128 64.7289 11.936C64.9369 11.728 65.2169 11.52 65.5689 11.312C65.9369 11.104 66.2729 11 66.5769 11C67.2009 11 67.6809 11.224 68.0169 11.672C68.3529 12.12 68.5529 12.616 68.6169 13.16C68.7929 14.6 69.0729 15.32 69.4569 15.32C69.7609 15.32 70.1529 15.24 70.6329 15.08C71.1129 14.92 71.3769 14.84 71.4249 14.84C71.9049 14.84 72.1449 15.08 72.1449 15.56C72.1449 15.912 71.9049 16.168 71.4249 16.328C70.5609 16.616 69.8569 16.76 69.3129 16.76C68.7849 16.76 68.3529 16.536 68.0169 16.088C67.6809 15.64 67.4809 15.144 67.4169 14.6C67.2409 13.16 66.9609 12.44 66.5769 12.44C66.3689 12.44 66.1289 12.576 65.8569 12.848C65.6009 13.104 65.3929 13.312 65.2329 13.472C65.0729 13.616 64.8889 13.8 64.6809 14.024ZM86.543 16.328C85.679 16.616 85.007 16.76 84.527 16.76C84.047 16.76 83.671 16.584 83.399 16.232C83.127 15.88 82.879 15.28 82.655 14.432C82.447 13.584 82.287 13.16 82.175 13.16C81.759 13.16 81.319 13.8 80.855 15.08C80.679 15.56 80.391 16 79.991 16.4C79.591 16.8 79.087 17 78.479 17C77.887 17 77.423 16.736 77.087 16.208C76.751 15.68 76.551 15.104 76.487 14.48C76.439 13.856 76.359 13.28 76.247 12.752C76.135 12.224 75.951 11.96 75.695 11.96C75.519 11.96 75.391 12.008 75.311 12.104C75.231 12.2 75.159 12.296 75.095 12.392C75.047 12.472 74.991 12.56 74.927 12.656C74.879 12.736 74.815 12.848 74.735 12.992C74.671 13.136 74.591 13.288 74.495 13.448C74.175 14.008 73.919 14.424 73.727 14.696C73.343 15.304 72.775 15.768 72.023 16.088C71.735 16.216 71.503 16.28 71.327 16.28C70.847 16.28 70.607 16.04 70.607 15.56C70.607 15.256 70.863 15.008 71.375 14.816C71.887 14.624 72.247 14.352 72.455 14C72.679 13.632 72.927 13.216 73.199 12.752C73.471 12.288 73.655 11.976 73.751 11.816C73.863 11.656 73.999 11.464 74.159 11.24C74.319 11 74.463 10.848 74.591 10.784C74.927 10.608 75.295 10.52 75.695 10.52C76.351 10.52 76.847 10.784 77.183 11.312C77.519 11.84 77.711 12.416 77.759 13.04C77.823 13.664 77.911 14.24 78.023 14.768C78.135 15.296 78.319 15.56 78.575 15.56C78.831 15.56 79.071 15.36 79.295 14.96C79.535 14.56 79.743 14.12 79.919 13.64C80.095 13.16 80.375 12.72 80.759 12.32C81.159 11.92 81.631 11.72 82.175 11.72C82.591 11.72 82.895 11.824 83.087 12.032C83.279 12.224 83.415 12.376 83.495 12.488C83.591 12.6 83.671 12.768 83.735 12.992C83.815 13.216 83.871 13.384 83.903 13.496C83.935 13.592 83.983 13.768 84.047 14.024C84.239 14.904 84.415 15.336 84.575 15.32C84.879 15.32 85.271 15.24 85.751 15.08C86.231 14.92 86.495 14.84 86.543 14.84C87.023 14.84 87.263 15.08 87.263 15.56C87.263 15.912 87.023 16.168 86.543 16.328ZM91.2682 17.648C91.1722 17.52 90.8842 17.152 90.4042 16.544C89.9242 15.936 89.5962 15.512 89.4202 15.272C89.2602 15.016 89.0282 14.648 88.7242 14.168C88.1962 13.336 87.9322 12.488 87.9322 11.624C87.9322 10.76 88.1642 10 88.6282 9.344C89.1082 8.688 89.7082 8.36 90.4282 8.36C91.1482 8.36 91.7802 8.576 92.3242 9.008C92.8682 9.44 93.2282 10.056 93.4042 10.856C93.4362 10.984 93.4522 11.112 93.4522 11.24C93.4522 11.72 93.2122 11.96 92.7322 11.96C92.3802 11.96 92.1402 11.72 92.0122 11.24C91.7882 10.28 91.3082 9.8 90.5722 9.8C90.1722 9.8 89.8682 10 89.6602 10.4C89.4682 10.784 89.3722 11.168 89.3722 11.552C89.3722 11.936 89.4202 12.28 89.5162 12.584C89.6282 12.888 89.8042 13.24 90.0442 13.64C90.3002 14.024 90.5082 14.328 90.6682 14.552C91.1002 15.16 91.6682 15.888 92.3722 16.736C93.4282 15.952 94.4922 15.376 95.5642 15.008C95.9002 14.896 96.0922 14.84 96.1402 14.84C96.6202 14.84 96.8602 15.08 96.8602 15.56C96.8602 15.912 96.6202 16.168 96.1402 16.328C95.1962 16.632 94.2122 17.16 93.1882 17.912C93.9402 19.08 94.3162 20.064 94.3162 20.864C94.3162 21.664 93.9962 22.464 93.3562 23.264C92.7162 24.08 92.0202 24.488 91.2682 24.488C90.5162 24.488 89.8922 24.232 89.3962 23.72C88.9002 23.208 88.6522 22.568 88.6522 21.8C88.6522 20.616 89.5242 19.232 91.2682 17.648ZM92.0842 18.824C90.7562 20.072 90.0922 21.064 90.0922 21.8C90.0922 22.184 90.1962 22.488 90.4042 22.712C90.6122 22.936 90.8922 23.048 91.2442 23.048C91.6122 23.048 91.9722 22.784 92.3242 22.256C92.6922 21.728 92.8762 21.224 92.8762 20.744C92.8762 20.28 92.6122 19.64 92.0842 18.824ZM111.318 14.864C111.974 15.328 112.758 15.56 113.67 15.56C114.582 15.56 115.59 15.376 116.694 15.008C117.03 14.896 117.222 14.84 117.27 14.84C117.75 14.84 117.99 15.08 117.99 15.56C117.99 15.912 117.75 16.168 117.27 16.328C115.926 16.776 114.79 17 113.862 17C112.198 17 110.878 16.52 109.902 15.56C108.75 16.04 107.478 16.4 106.086 16.64C104.71 16.88 103.542 17 102.582 17C101.27 17 100.182 16.544 99.3176 15.632C98.4536 14.704 98.0216 13.416 98.0216 11.768C98.0216 10.12 98.3336 8.4 98.9576 6.608C99.5976 4.8 100.406 3.328 101.382 2.192C102.358 1.056 103.278 0.487999 104.142 0.487999C105.022 0.487999 105.702 0.871999 106.182 1.64C106.662 2.392 106.902 3.144 106.902 3.896C106.902 5.176 106.558 6.328 105.87 7.352C105.182 8.376 104.294 9.072 103.206 9.44C102.966 9.52 102.758 9.56 102.582 9.56C102.102 9.56 101.862 9.32 101.862 8.84C101.862 8.536 102.174 8.28 102.798 8.072C103.422 7.848 103.95 7.48 104.382 6.968C105.102 6.104 105.462 5.08 105.462 3.896C105.462 3.448 105.342 3.008 105.102 2.576C104.878 2.144 104.598 1.928 104.262 1.928C103.926 1.928 103.494 2.192 102.966 2.72C102.438 3.232 101.91 3.912 101.382 4.76C100.854 5.608 100.398 6.688 100.014 8C99.6456 9.296 99.4616 10.568 99.4616 11.816C99.4616 13.064 99.7496 14 100.326 14.624C100.918 15.248 101.638 15.56 102.486 15.56C103.35 15.56 104.406 15.456 105.654 15.248C106.902 15.04 108.038 14.744 109.062 14.36C108.742 13.64 108.582 12.864 108.582 12.032C108.582 11.184 108.822 10.44 109.302 9.8C109.782 9.16 110.374 8.84 111.078 8.84C111.782 8.84 112.358 9.128 112.806 9.704C113.27 10.28 113.502 10.912 113.502 11.6C113.502 12.88 112.774 13.968 111.318 14.864ZM110.382 13.736C111.502 13.096 112.062 12.384 112.062 11.6C112.062 11.312 111.966 11.024 111.774 10.736C111.598 10.432 111.374 10.28 111.102 10.28C110.846 10.28 110.598 10.448 110.358 10.784C110.134 11.104 110.022 11.552 110.022 12.128C110.022 12.688 110.142 13.224 110.382 13.736Z" fill="black"/>
</g>
<defs>
<filter id="filter0_d_28_683" x="0.400024" y="0.488037" width="121.589" height="32" filterUnits="userSpaceOnUse" color-interpolation-filters="sRGB">
<feFlood flood-opacity="0" result="BackgroundImageFix"/>
<feColorMatrix in="SourceAlpha" type="matrix" values="0 0 0 0 0 0 0 0 0 0 0 0 0 0 0 0 0 0 127 0" result="hardAlpha"/>
<feOffset dy="4"/>
<feGaussianBlur stdDeviation="2"/>
<feComposite in2="hardAlpha" operator="out"/>
<feColorMatrix type="matrix" values="0 0 0 0 0 0 0 0 0 0 0 0 0 0 0 0 0 0 0.25 0"/>
<feBlend mode="normal" in2="BackgroundImageFix" result="effect1_dropShadow_28_683"/>
<feBlend mode="normal" in="SourceGraphic" in2="effect1_dropShadow_28_683" result="shape"/>
</filter>
</defs>
</svg>
