<svg width="42" height="42" viewBox="0 0 42 42" fill="none" xmlns="http://www.w3.org/2000/svg">
<path d="M15.9999 31.0001V35.003" stroke="#B5B7C0" stroke-width="1.00189" stroke-linecap="round" stroke-linejoin="round"/>
<path d="M10.0012 6.99994H22.0012C22.5317 6.99994 23.0404 7.21065 23.4154 7.58573C23.7905 7.9608 24.0012 8.46951 24.0012 8.99994V34.7499C24.0012 34.8162 23.9749 34.8798 23.928 34.9267C23.8811 34.9736 23.8175 34.9999 23.7512 34.9999H8.00122V8.99994C8.00122 8.46951 8.21193 7.9608 8.58701 7.58573C8.96208 7.21065 9.47079 6.99994 10.0012 6.99994V6.99994Z" stroke="#B5B7C0" stroke-width="1.00189" stroke-linecap="round" stroke-linejoin="round"/>
<path d="M25.0005 16.9994H32.0005C32.531 16.9994 33.0397 17.2101 33.4148 17.5852C33.7898 17.9602 34.0005 18.469 34.0005 18.9994V34.9994H24.0005V17.9994C24.0005 17.7342 24.1059 17.4798 24.2934 17.2923C24.481 17.1047 24.7353 16.9994 25.0005 16.9994Z" stroke="#B5B7C0" stroke-width="1.00189" stroke-linecap="round" stroke-linejoin="round"/>
<path d="M11.141 32.0097C10.932 32.037 10.7197 31.9982 10.5339 31.8987C10.3481 31.7993 10.1981 31.6441 10.105 31.4551C10.0119 31.266 9.98027 31.0525 10.0146 30.8446C10.049 30.6367 10.1476 30.4447 10.2967 30.2957C10.4457 30.1467 10.6376 30.0481 10.8456 30.0137C11.0535 29.9793 11.267 30.0109 11.456 30.104C11.6451 30.1972 11.8002 30.3472 11.8997 30.533C11.9991 30.7188 12.0379 30.9311 12.0106 31.14C11.9818 31.3606 11.8809 31.5654 11.7236 31.7226C11.5663 31.8799 11.3615 31.9808 11.141 32.0097Z" fill="#B5B7C0"/>
<path d="M11.141 27.0093C10.932 27.0366 10.7197 26.9978 10.5339 26.8984C10.3481 26.7989 10.1981 26.6437 10.105 26.4547C10.0119 26.2656 9.98027 26.0522 10.0146 25.8442C10.049 25.6363 10.1476 25.4444 10.2967 25.2953C10.4457 25.1463 10.6376 25.0477 10.8456 25.0133C11.0535 24.979 11.267 25.0106 11.456 25.1037C11.6451 25.1968 11.8002 25.3468 11.8997 25.5326C11.9991 25.7184 12.0379 25.9307 12.0106 26.1397C11.9818 26.3602 11.8809 26.565 11.7236 26.7223C11.5663 26.8795 11.3615 26.9804 11.141 27.0093Z" fill="#B5B7C0"/>
<path d="M11.141 22.0089C10.932 22.0362 10.7197 21.9974 10.5339 21.8979C10.3481 21.7985 10.1981 21.6433 10.105 21.4543C10.0119 21.2652 9.98027 21.0517 10.0146 20.8438C10.049 20.6359 10.1476 20.4439 10.2967 20.2949C10.4457 20.1459 10.6376 20.0473 10.8456 20.0129C11.0535 19.9785 11.267 20.0101 11.456 20.1033C11.6451 20.1964 11.8002 20.3464 11.8997 20.5322C11.9991 20.718 12.0379 20.9303 12.0106 21.1392C11.9818 21.3598 11.8809 21.5646 11.7236 21.7219C11.5663 21.8791 11.3615 21.98 11.141 22.0089Z" fill="#B5B7C0"/>
<path d="M11.141 17.0093C10.932 17.0367 10.7197 16.9979 10.5339 16.8984C10.3481 16.799 10.1981 16.6438 10.105 16.4548C10.0119 16.2657 9.98027 16.0522 10.0146 15.8443C10.049 15.6364 10.1476 15.4444 10.2967 15.2954C10.4457 15.1464 10.6376 15.0478 10.8456 15.0134C11.0535 14.979 11.267 15.0106 11.456 15.1037C11.6451 15.1969 11.8002 15.3469 11.8997 15.5327C11.9991 15.7185 12.0379 15.9308 12.0106 16.1397C11.9818 16.3603 11.8809 16.5651 11.7236 16.7223C11.5663 16.8796 11.3615 16.9805 11.141 17.0093Z" fill="#B5B7C0"/>
<path d="M11.141 12.0092C10.932 12.0365 10.7197 11.9977 10.5339 11.8982C10.3481 11.7988 10.1981 11.6436 10.105 11.4546C10.0119 11.2655 9.98027 11.052 10.0146 10.8441C10.049 10.6362 10.1476 10.4442 10.2967 10.2952C10.4457 10.1462 10.6376 10.0476 10.8456 10.0132C11.0535 9.97883 11.267 10.0104 11.456 10.1036C11.6451 10.1967 11.8002 10.3467 11.8997 10.5325C11.9991 10.7183 12.0379 10.9306 12.0106 11.1395C11.9818 11.3601 11.8809 11.5649 11.7236 11.7222C11.5663 11.8794 11.3615 11.9803 11.141 12.0092Z" fill="#B5B7C0"/>
<path d="M16.1405 27.0093C15.9315 27.0366 15.7193 26.9978 15.5335 26.8984C15.3477 26.7989 15.1977 26.6437 15.1045 26.4547C15.0114 26.2656 14.9798 26.0522 15.0142 25.8442C15.0486 25.6363 15.1472 25.4444 15.2962 25.2953C15.4452 25.1463 15.6372 25.0477 15.8451 25.0133C16.053 24.979 16.2665 25.0106 16.4555 25.1037C16.6446 25.1968 16.7998 25.3468 16.8992 25.5326C16.9987 25.7184 17.0375 25.9307 17.0101 26.1397C16.9813 26.3602 16.8804 26.565 16.7231 26.7223C16.5659 26.8795 16.361 26.9804 16.1405 27.0093Z" fill="#B5B7C0"/>
<path d="M16.1405 22.0089C15.9315 22.0362 15.7193 21.9974 15.5335 21.8979C15.3477 21.7985 15.1977 21.6433 15.1045 21.4543C15.0114 21.2652 14.9798 21.0517 15.0142 20.8438C15.0486 20.6359 15.1472 20.4439 15.2962 20.2949C15.4452 20.1459 15.6372 20.0473 15.8451 20.0129C16.053 19.9785 16.2665 20.0101 16.4555 20.1033C16.6446 20.1964 16.7998 20.3464 16.8992 20.5322C16.9987 20.718 17.0375 20.9303 17.0101 21.1392C16.9813 21.3598 16.8804 21.5646 16.7231 21.7219C16.5659 21.8791 16.361 21.98 16.1405 22.0089Z" fill="#B5B7C0"/>
<path d="M16.1405 17.0093C15.9315 17.0367 15.7193 16.9979 15.5335 16.8984C15.3477 16.799 15.1977 16.6438 15.1045 16.4548C15.0114 16.2657 14.9798 16.0522 15.0142 15.8443C15.0486 15.6364 15.1472 15.4444 15.2962 15.2954C15.4452 15.1464 15.6372 15.0478 15.8451 15.0134C16.053 14.979 16.2665 15.0106 16.4555 15.1037C16.6446 15.1969 16.7998 15.3469 16.8992 15.5327C16.9987 15.7185 17.0375 15.9308 17.0101 16.1397C16.9813 16.3603 16.8804 16.5651 16.7231 16.7223C16.5659 16.8796 16.361 16.9805 16.1405 17.0093Z" fill="#B5B7C0"/>
<path d="M16.1405 12.0092C15.9315 12.0365 15.7193 11.9977 15.5335 11.8982C15.3477 11.7988 15.1977 11.6436 15.1045 11.4546C15.0114 11.2655 14.9798 11.052 15.0142 10.8441C15.0486 10.6362 15.1472 10.4442 15.2962 10.2952C15.4452 10.1462 15.6372 10.0476 15.8451 10.0132C16.053 9.97883 16.2665 10.0104 16.4555 10.1036C16.6446 10.1967 16.7998 10.3467 16.8992 10.5325C16.9987 10.7183 17.0375 10.9306 17.0101 11.1395C16.9813 11.3601 16.8804 11.5649 16.7231 11.7222C16.5659 11.8794 16.361 11.9803 16.1405 12.0092Z" fill="#B5B7C0"/>
<path d="M21.1408 32.0097C20.9318 32.037 20.7195 31.9982 20.5337 31.8987C20.3479 31.7993 20.1979 31.6441 20.1048 31.4551C20.0117 31.266 19.9801 31.0525 20.0145 30.8446C20.0488 30.6367 20.1475 30.4447 20.2965 30.2957C20.4455 30.1467 20.6374 30.0481 20.8454 30.0137C21.0533 29.9793 21.2668 30.0109 21.4558 30.104C21.6449 30.1972 21.8 30.3472 21.8995 30.533C21.999 30.7188 22.0377 30.9311 22.0104 31.14C21.9816 31.3606 21.8807 31.5654 21.7234 31.7226C21.5661 31.8799 21.3613 31.9808 21.1408 32.0097Z" fill="#B5B7C0"/>
<path d="M21.1408 27.0093C20.9318 27.0366 20.7195 26.9978 20.5337 26.8984C20.3479 26.7989 20.1979 26.6437 20.1048 26.4547C20.0117 26.2656 19.9801 26.0522 20.0145 25.8442C20.0488 25.6363 20.1475 25.4444 20.2965 25.2953C20.4455 25.1463 20.6374 25.0477 20.8454 25.0133C21.0533 24.979 21.2668 25.0106 21.4558 25.1037C21.6449 25.1968 21.8 25.3468 21.8995 25.5326C21.999 25.7184 22.0377 25.9307 22.0104 26.1397C21.9816 26.3602 21.8807 26.565 21.7234 26.7223C21.5661 26.8795 21.3613 26.9804 21.1408 27.0093Z" fill="#B5B7C0"/>
<path d="M21.1408 22.0089C20.9318 22.0362 20.7195 21.9974 20.5337 21.8979C20.3479 21.7985 20.1979 21.6433 20.1048 21.4543C20.0117 21.2652 19.9801 21.0517 20.0145 20.8438C20.0488 20.6359 20.1475 20.4439 20.2965 20.2949C20.4455 20.1459 20.6374 20.0473 20.8454 20.0129C21.0533 19.9785 21.2668 20.0101 21.4558 20.1033C21.6449 20.1964 21.8 20.3464 21.8995 20.5322C21.999 20.718 22.0377 20.9303 22.0104 21.1392C21.9816 21.3598 21.8807 21.5646 21.7234 21.7219C21.5661 21.8791 21.3613 21.98 21.1408 22.0089Z" fill="#B5B7C0"/>
<path d="M21.7284 16.7137C22.1212 16.3209 22.1196 15.6824 21.7248 15.2876C21.3301 14.8929 20.6916 14.8913 20.2988 15.2841C19.906 15.6769 19.9076 16.3153 20.3024 16.7101C20.6971 17.1049 21.3356 17.1065 21.7284 16.7137Z" fill="#B5B7C0"/>
<path d="M21.1408 12.0092C20.9318 12.0365 20.7195 11.9977 20.5337 11.8982C20.3479 11.7988 20.1979 11.6436 20.1048 11.4546C20.0117 11.2655 19.9801 11.052 20.0145 10.8441C20.0488 10.6362 20.1475 10.4442 20.2965 10.2952C20.4455 10.1462 20.6374 10.0476 20.8454 10.0132C21.0533 9.97883 21.2668 10.0104 21.4558 10.1036C21.6449 10.1967 21.8 10.3467 21.8995 10.5325C21.999 10.7183 22.0377 10.9306 22.0104 11.1395C21.9816 11.3601 21.8807 11.5649 21.7234 11.7222C21.5661 11.8794 21.3613 11.9803 21.1408 12.0092Z" fill="#B5B7C0"/>
<path d="M30.0101 29.9997C29.8105 29.9997 29.6154 30.0589 29.4495 30.1697C29.2836 30.2806 29.1542 30.4382 29.0779 30.6226C29.0015 30.8069 28.9815 31.0098 29.0205 31.2055C29.0594 31.4013 29.1555 31.581 29.2966 31.7222C29.4377 31.8633 29.6175 31.9594 29.8132 31.9983C30.0089 32.0372 30.2118 32.0172 30.3962 31.9409C30.5806 31.8645 30.7381 31.7352 30.849 31.5693C30.9599 31.4033 31.0191 31.2083 31.0191 31.0087C31.0191 30.7411 30.9128 30.4844 30.7235 30.2952C30.5343 30.106 30.2777 29.9997 30.0101 29.9997Z" fill="#B5B7C0"/>
<path d="M30.0101 24.9993C29.8105 24.9993 29.6154 25.0585 29.4495 25.1694C29.2836 25.2802 29.1542 25.4378 29.0779 25.6222C29.0015 25.8066 28.9815 26.0094 29.0205 26.2052C29.0594 26.4009 29.1555 26.5807 29.2966 26.7218C29.4377 26.8629 29.6175 26.959 29.8132 26.9979C30.0089 27.0369 30.2118 27.0169 30.3962 26.9405C30.5806 26.8641 30.7381 26.7348 30.849 26.5689C30.9599 26.403 31.0191 26.2079 31.0191 26.0083C31.0191 25.7407 30.9128 25.4841 30.7235 25.2949C30.5343 25.1056 30.2777 24.9993 30.0101 24.9993Z" fill="#B5B7C0"/>
<path d="M30.0101 19.9989C29.8105 19.9989 29.6154 20.0581 29.4495 20.1689C29.2836 20.2798 29.1542 20.4374 29.0779 20.6218C29.0015 20.8061 28.9815 21.009 29.0205 21.2047C29.0594 21.4005 29.1555 21.5803 29.2966 21.7214C29.4377 21.8625 29.6175 21.9586 29.8132 21.9975C30.0089 22.0364 30.2118 22.0165 30.3962 21.9401C30.5806 21.8637 30.7381 21.7344 30.849 21.5685C30.9599 21.4025 31.0191 21.2075 31.0191 21.0079C31.0191 20.7403 30.9128 20.4837 30.7235 20.2944C30.5343 20.1052 30.2777 19.9989 30.0101 19.9989Z" fill="#B5B7C0"/>
<path d="M26.0105 29.9997C25.8109 29.9997 25.6158 30.0589 25.4499 30.1697C25.284 30.2806 25.1546 30.4382 25.0783 30.6226C25.0019 30.8069 24.9819 31.0098 25.0209 31.2055C25.0598 31.4013 25.1559 31.581 25.297 31.7222C25.4381 31.8633 25.6179 31.9594 25.8136 31.9983C26.0093 32.0372 26.2122 32.0172 26.3966 31.9409C26.581 31.8645 26.7385 31.7352 26.8494 31.5693C26.9603 31.4033 27.0195 31.2083 27.0195 31.0087C27.0195 30.7411 26.9132 30.4844 26.7239 30.2952C26.5347 30.106 26.2781 29.9997 26.0105 29.9997Z" fill="#B5B7C0"/>
<path d="M26.0105 24.9993C25.8109 24.9993 25.6158 25.0585 25.4499 25.1694C25.284 25.2802 25.1546 25.4378 25.0783 25.6222C25.0019 25.8066 24.9819 26.0094 25.0209 26.2052C25.0598 26.4009 25.1559 26.5807 25.297 26.7218C25.4381 26.8629 25.6179 26.959 25.8136 26.9979C26.0093 27.0369 26.2122 27.0169 26.3966 26.9405C26.581 26.8641 26.7385 26.7348 26.8494 26.5689C26.9603 26.403 27.0195 26.2079 27.0195 26.0083C27.0195 25.7407 26.9132 25.4841 26.7239 25.2949C26.5347 25.1056 26.2781 24.9993 26.0105 24.9993Z" fill="#B5B7C0"/>
<path d="M26.0105 19.9989C25.8109 19.9989 25.6158 20.0581 25.4499 20.1689C25.284 20.2798 25.1546 20.4374 25.0783 20.6218C25.0019 20.8061 24.9819 21.009 25.0209 21.2047C25.0598 21.4005 25.1559 21.5803 25.297 21.7214C25.4381 21.8625 25.6179 21.9586 25.8136 21.9975C26.0093 22.0364 26.2122 22.0165 26.3966 21.9401C26.581 21.8637 26.7385 21.7344 26.8494 21.5685C26.9603 21.4025 27.0195 21.2075 27.0195 21.0079C27.0195 20.7403 26.9132 20.4837 26.7239 20.2944C26.5347 20.1052 26.2781 19.9989 26.0105 19.9989Z" fill="#B5B7C0"/>
</svg>
