<svg width="42" height="42" viewBox="0 0 42 42" fill="none" xmlns="http://www.w3.org/2000/svg">
<g clip-path="url(#clip0_1_499)">
<path d="M30.1278 15.5013C29.9446 18.0435 28.0587 20.0019 26.0022 20.0019C23.9457 20.0019 22.0566 18.0441 21.8766 15.5013C21.6891 12.8565 23.525 11.0006 26.0022 11.0006C28.4794 11.0006 30.3153 12.9046 30.1278 15.5013Z" stroke="#B5B7C0" stroke-width="1.00189" stroke-linecap="round" stroke-linejoin="round"/>
<path d="M26.0009 24.0013C21.9278 24.0013 18.0109 26.0245 17.0297 29.9645C16.8997 30.4857 17.2266 31.0013 17.7622 31.0013H34.2403C34.7759 31.0013 35.1009 30.4857 34.9728 29.9645C33.9916 25.9613 30.0747 24.0013 26.0009 24.0013Z" stroke="#B5B7C0" stroke-width="1.00189" stroke-miterlimit="10"/>
<path d="M17.5029 16.6238C17.3566 18.6546 15.8322 20.254 14.1891 20.254C12.5459 20.254 11.019 18.6552 10.8752 16.6238C10.7258 14.511 12.2095 13.001 14.1891 13.001C16.1686 13.001 17.6524 14.5498 17.5029 16.6238Z" stroke="#B5B7C0" stroke-width="1.00189" stroke-linecap="round" stroke-linejoin="round"/>
<path d="M17.8763 24.1253C16.748 23.6084 15.5054 23.4096 14.1883 23.4096C10.9378 23.4096 7.80614 25.0255 7.02165 28.1728C6.91851 28.5891 7.1798 29.001 7.60736 29.001H14.6259" stroke="#B5B7C0" stroke-width="1.00189" stroke-miterlimit="10" stroke-linecap="round"/>
</g>
<defs>
<clipPath id="clip0_1_499">
<rect width="32" height="32" fill="white" transform="translate(5 5)"/>
</clipPath>
</defs>
</svg>
